<svg id="PRINT_1" data-name="PRINT 1" xmlns="http://www.w3.org/2000/svg" viewBox="0 0 352.66 352.66"><defs><style>.cls-1{fill:#fff;}</style></defs><path class="cls-1" d="M534.7,429.44H465.3a35.89,35.89,0,0,0-35.86,35.86v69.4a35.9,35.9,0,0,0,35.86,35.87h69.4a35.9,35.9,0,0,0,35.86-35.87V465.3A35.89,35.89,0,0,0,534.7,429.44Zm-34,113.37A42.81,42.81,0,1,1,543.52,500a42.81,42.81,0,0,1-42.82,42.81ZM546,464.5a10.19,10.19,0,1,1,10.19-10.19A10.19,10.19,0,0,1,546,464.5Z" transform="translate(-323.67 -323.67)"/><path class="cls-1" d="M500,323.67A176.33,176.33,0,1,0,676.33,500,176.34,176.34,0,0,0,500,323.67Zm86.92,211a52.27,52.27,0,0,1-52.22,52.22H465.3a52.27,52.27,0,0,1-52.22-52.22V465.3a52.27,52.27,0,0,1,52.22-52.22h69.4a52.27,52.27,0,0,1,52.22,52.22Z" transform="translate(-323.67 -323.67)"/><path class="cls-1" d="M500.71,472.58A27.42,27.42,0,1,0,528.14,500,27.42,27.42,0,0,0,500.71,472.58Z" transform="translate(-323.67 -323.67)"/></svg>