<svg id="PRINT_1" data-name="PRINT 1" xmlns="http://www.w3.org/2000/svg" viewBox="0 0 351.97 351.99"><defs><style>.cls-1{fill:#fff;}</style></defs><path class="cls-1" d="M673.63,469.33c-10-53.5-38.66-94.15-85.28-122-22.85-13.65-47.8-21.1-74.36-23.09a21.9,21.9,0,0,1-2.65-.56h-22c-6.33.87-12.69,1.56-19,2.65-40.64,7.08-74.62,26.25-102,57-23.53,26.47-37.87,57.43-42.4,92.55-6.19,48,5.06,91.72,34.41,130.29,26.31,34.58,60.95,57,103.61,65.54C523,683.49,575.54,669,620.09,628.31c30.88-28.2,48.69-63.68,54.63-105.09.6-4.17,1-8.37,1.55-12.56v-22C675.45,482.21,674.83,475.72,673.63,469.33ZM597.43,602.9q-26.46,0-52.92.06a5.53,5.53,0,0,1-5.25-2.83q-25.18-36.87-50.53-73.62l-2.59-3.74c-.88,1-1.63,1.78-2.34,2.6q-32.28,37.5-64.51,75a6.3,6.3,0,0,1-5.54,2.55c-4.55-.2-9.1-.06-14.51-.06l78.92-91.76L399.32,396.37c1.61-.1,2.6-.21,3.59-.21q26.63,0,53.26-.07a5.64,5.64,0,0,1,5.26,2.89q23.82,34.89,47.8,69.66c.77,1.11,1.56,2.2,2.48,3.51L539,440.44c11.88-13.8,23.79-27.57,35.58-41.46a7.21,7.21,0,0,1,6.45-2.89c4.31.23,8.64.06,13.92.06l-75.32,87.59L601.48,602.9Z" transform="translate(-324.3 -323.68)"/><path class="cls-1" d="M577.05,590.17c-7.67,0-14.62-.29-21.54.11-4.29.25-6.73-1.22-9.17-4.72Q486.22,499.18,425.83,413c-.65-.91-1.25-1.86-2.27-3.38,5.82,0,11.19.57,16.4-.13,8.16-1.1,12.72,2.26,17.33,8.94,38.84,56.21,78.13,112.13,117.28,168.13C575.26,587.53,575.94,588.54,577.05,590.17Z" transform="translate(-324.3 -323.68)"/></svg>