<svg id="PRINT_1" data-name="PRINT 1" xmlns="http://www.w3.org/2000/svg" viewBox="0 0 396.72 396.56"><defs><style>.cls-1{fill:#fff;}</style></defs><path class="cls-1" d="M511.67,698.28H488.43c-1.13-.23-2.25-.5-3.38-.67-10.82-1.68-21.82-2.59-32.43-5.13C350.84,668.1,285.26,565.84,305.18,462.88c8.28-42.79,28.27-79.28,60.47-108.6,45.93-41.82,100.21-58.5,161.71-50.69,39.18,5,73.69,21.05,103.29,47.19,34.86,30.79,56.66,69.1,64.69,115,1.3,7.45,2,15,3,22.51v23.24c-.23,1.37-.52,2.73-.7,4.1-.95,7.16-1.5,14.38-2.85,21.46A193.62,193.62,0,0,1,641,639.26C611.4,669.18,575.79,688,534.19,695.19,526.76,696.51,519.19,697.27,511.67,698.28ZM488.16,488.14v-58.3l-66.83-4.62a307.47,307.47,0,0,0-8.17,62.92Zm23.7-.06H587a305,305,0,0,0-8.08-62.37l-67,4.22Zm-123.14,0q4.27-33.68,8.42-66.37c-14.83-3.74-30-7.62-45.3-11.29-.92-.23-2.74,1-3.34,2a170.25,170.25,0,0,0-23,75.67Zm285.89,23.7H611.3q-4.26,33.09-8.43,65.34l48.22,11.37a172.18,172.18,0,0,0,23.52-76.7Zm0-23.7a171.62,171.62,0,0,0-23.49-76.58l-48.06,10.73q4.13,32.75,8.28,65.85Zm-87.68,23.75H512v57l66.75,4.59a308.07,308.07,0,0,0,8.19-61.58Zm-173.8,0A303.34,303.34,0,0,0,421.31,573l66.9-4.16v-57Zm-16,64.87c-2.78-21.8-5.53-43.31-8.27-64.81H325.48a170.81,170.81,0,0,0,22.13,74c.51.88,2.54,1.55,3.65,1.31,4.52-1,8.92-2.5,13.44-3.51,10.92-2.49,21.87-4.77,32.42-7ZM511.8,406.47l61.05-3.64c-4.46-10.07-8.12-19.29-12.54-28.12-7-14-15.88-26.87-28.15-37-6-4.94-12.51-9-20.36-10.94ZM488.18,671.8V592.25l-60,3.59c5,19.5,20.25,46.2,34.36,60.16C469.79,663.15,478,668.87,488.18,671.8ZM427.71,402.37l60.47,4V326C453.94,340.54,440.5,370.45,427.71,402.37ZM572.14,596.26l-60.26-4v79.47a53.05,53.05,0,0,0,20.89-11.48C552.33,643.35,563,620.92,572.14,596.26ZM403.66,599.2l-41.38,8.73c20.38,25.3,44.62,43.51,74,55-6.19-10.33-12.74-20.07-18-30.44S408.68,610.87,403.66,599.2Zm160,63.36c29.22-11,53.24-28.88,73.47-53.76l-41.55-9.14c-7.65,22.91-17.58,44-32,62.9Zm1-325c14.07,18.77,23.84,39.64,31.25,62.15L637.13,391c-20.13-24.57-43.82-42.36-72.53-53.44ZM404.54,399c7.3-22.47,17.2-42.89,30.88-61.44C407.06,348.62,383.57,366,363.85,390Z" transform="translate(-301.62 -301.72)"/></svg>