<svg id="Layer_1" data-name="Layer 1" xmlns="http://www.w3.org/2000/svg" viewBox="0 0 352.66 352.3"><defs><style>.cls-1{fill:#fff;}</style></defs><path class="cls-1" d="M187.35,352.48h-22c-4.3-.53-8.62-1-12.91-1.59-34.85-5-65.73-18.79-92.14-42.05C29.35,281.63,10,247.71,2.74,207.14,1.57,200.63.9,194,0,187.47v-22c.41-3.16.84-6.32,1.24-9.49C7.56,105.9,30.91,65.4,71.29,35.26,128.11-7.15,203.38-11.5,264.7,24.34c46.86,27.39,75.21,68.41,85.25,121.8,1.21,6.39,1.82,12.89,2.71,19.33v22a21,21,0,0,0-.57,2.66c-2.07,27.16-9.83,52.6-24,75.85-27.9,45.69-68.25,73.78-121,83.77C200.54,351,193.92,351.59,187.35,352.48ZM74.72,278.89c17.47-4.55,34.21-8.85,50.9-13.33a9.3,9.3,0,0,1,7.14.7c21,10.4,43,13.47,65.92,8.83,54.67-11.07,89.88-61.67,81.73-117C271.9,100.4,214.23,60.87,157,73.54A103.08,103.08,0,0,0,87.9,223.19a7.75,7.75,0,0,1,.61,5.1c-1.9,7.66-4.11,15.24-6.2,22.85C79.84,260.16,77.38,269.18,74.72,278.89Z" transform="translate(0 -0.18)"/><path class="cls-1" d="M99.54,254.26c2.56-9.44,4.82-18.3,7.43-27.06a8.77,8.77,0,0,0-1.06-7.92A85.43,85.43,0,0,1,156.35,91.63c51.25-14.1,103.53,22.55,107.59,75.42,3.47,45.27-28,85.16-72.62,91.75a84.11,84.11,0,0,1-56.26-11A8.25,8.25,0,0,0,128,247c-8.61,2.39-17.28,4.56-25.93,6.81C101.44,253.93,100.79,254,99.54,254.26Zm45.37-127.33-.16-1c-2.83,1-6.24,1.29-8.37,3.1-7.53,6.42-10.9,14.86-10,24.78.9,9.44,5.49,17.33,10.89,24.85,11.26,15.65,24.38,29.29,42.24,37.38,9.78,4.43,19.75,9.26,31,7.13,12.42-2.34,20.63-9.54,20.22-22a5.17,5.17,0,0,0-2.05-3.84c-6.93-3.54-14-6.79-21.05-10.11-2.33-1.1-4.11-.45-5.66,1.62-2.34,3.11-4.91,6-7.31,9.11a4.43,4.43,0,0,1-5.74,1.56c-15.28-6.06-26.9-16.33-35.27-30.39a4,4,0,0,1,.53-5.28c1.85-2,3.61-4.15,5.28-6.33a7.82,7.82,0,0,0,.83-8.67c-2.47-5.41-4.71-10.93-6.87-16.47C151.93,128.5,149.79,125.76,144.91,126.93Z" transform="translate(0 -0.18)"/></svg>