<svg id="Layer_1" data-name="Layer 1" xmlns="http://www.w3.org/2000/svg" xmlns:xlink="http://www.w3.org/1999/xlink" viewBox="0 0 1000 1000"><defs><style>.cls-1{fill:url(#linear-gradient);}</style><linearGradient id="linear-gradient" x1="158.45" y1="500" x2="841.55" y2="500" gradientUnits="userSpaceOnUse"><stop offset="0" stop-color="#0f2022"/><stop offset="0.5" stop-color="#274046"/><stop offset="1" stop-color="#0f2022"/></linearGradient></defs><path class="cls-1" d="M614.26,372.13H385.85L295.71,331l90.14-41.19H614.26L704.4,331Zm-218.4,43.21H604.25l69.25,74.32L614.26,393H385.85l-59.24,96.63Zm329-75.17-81.59,42.75,39.45,93.82L677,400.93,735.8,368l105.75,25.25Zm-566.38,53.1L264.2,368,323,400.93l-5.65,75.81,39.45-93.82-81.59-42.75ZM686.36,496.7,523.45,710.24l299-278.1Zm-509-64.56,299,278.1L313.39,496.7Zm474.43,59L500.05,629.76,348.36,491.13,500.05,686.59h0Z"/></svg>